<?xml version="1.0" encoding="UTF-8"?>
<svg id="Layer_1" data-name="Layer 1" xmlns="http://www.w3.org/2000/svg" xmlns:xlink="http://www.w3.org/1999/xlink" viewBox="0 0 166.6 120.25">
  <defs>
    <style>
      .cls-1 {
        fill: url(#linear-gradient-2);
      }

      .cls-2 {
        fill: #bcbf54;
      }

      .cls-3 {
        fill: #bbbe53;
      }

      .cls-4 {
        fill: url(#linear-gradient);
      }
    </style>
    <linearGradient id="linear-gradient" x1="127.95" y1="51.62" x2="163.14" y2="51.62" gradientUnits="userSpaceOnUse">
      <stop offset="0" stop-color="#8b191c"/>
      <stop offset="1" stop-color="#f2f1d5"/>
    </linearGradient>
    <linearGradient id="linear-gradient-2" x1="107.75" y1="21.99" x2="140.57" y2="62.41" gradientUnits="userSpaceOnUse">
      <stop offset="0" stop-color="#f2f1d5"/>
      <stop offset=".63" stop-color="#8b191c"/>
    </linearGradient>
  </defs>
  <path class="cls-4" d="M162.7,31.83c-2.95-1.39-5.12-1.68-8.5-2.83.15,5.58-4.17,8.86-5.64,13.33-3.17,9.66-9.73,17.81-20.61,17.9.01,5.44,1.55,9.38,3.85,14.02,1.51-1.47.85-4.46,2.09-6.58,2.88-.79,5.65-3.42,8.8-3.08,1.47.16,3.23,3.69,5.11,2.61,3.01-1.73,6.23-4.86,7.9-7.9,1.13-2.04-2.91-3.79-2.7-5.52.3-2.49,1.45-6.06,3.09-8.02,1.66-1.98,4.93-.9,6.64-2.53.51-3.79.6-7.67-.03-11.42Z"/>
  <path class="cls-2" d="M127.9,60.23c.7-6.06.53-12.69,6.7-14.15,6.12-1.45,11.75-5.07,14.65-10.83,3.87-7.68,2.29-16.12,5.12-24.97-8.82,1.27-16.57,4.58-23.39,9.75-6.83,5.18-9.46,14.11-5.54,22.18,5.15-8.01,9.84-15.12,17.63-19.75-6.96,8.07-12.94,16.03-16.58,25.97-6.03,16.46,1.69,28.9,5.19,25.93.04-.04.08-.08.12-.12-2.3-4.64-3.83-8.58-3.85-14.02-.02,0-.03,0-.05,0Z"/>
  <path class="cls-1" d="M95.84,59.51l2.95-5.91c1.01-2.03-1.29-5.95-2.88-7.88-1.52-1.84-4.62-.71-6.48-2.42-.71-3.66-1.56-8.2.37-11.51,1.27-1.71,4.34-1.1,6.16-1.97l3.52-8.05-3.58-5.91c2.05-3.4,5.29-6.39,8.75-8.61,2.26.46,3.3,3.33,5.54,3.03,10.54-3.4,6.94-2.6,10.17-9.66,3.58-.94,7.56-.61,11.39-.2l2.23,6.59c.71,2.09,4.54,1.43,6.7,3.35l-8.4,4.97c-12.49-3.52-24.98,4.17-28.3,16.54-3.24,12.1,4.19,24.85,16.61,28.24.11,5.58,1.45,9.93,4.35,14.49-1.51.79-2.97.38-3.88.09-1.32-.42-1.82-2.18-1.86-3.4-.11-3.63-2.65-4.1-5.21-5.4-2.42-1.24-4.56-2.28-6.78.08-3.91,4.16-7.29-2.77-11.38-6.45Z"/>
  <path class="cls-2" d="M115.93,42.55c1.41,3.91,4.98,5.92,4.81,10.99-10.44-1.66-14.31-8.71-13.52-19.8,4.77.13,8.96,2.09,12.46,5,3.4,2.83,4.42,7.14,2.8,11.21-2.51-2.54-2.97-5.85-6.56-7.4Z"/>
  <path class="cls-3" d="M80.22,118.66c-5.31,2.35-11.3,2.02-16.17-.43-3.22-1.62-4.74-5.12-5.09-8.61-.62-6.28-.52-12.36-.04-18.6.37-4.84,3.22-8.53,7.83-9.93,3.7-1.12,7.68-1.08,11.46-.08,4.66,1.23,7.32,4.92,8.04,9.62-.44,8.57,3.22,23.92-6.04,28.02ZM75.88,107.58l.03-14.16c0-2.14-.97-3.75-2.8-3.88-1.42-.1-3.58.18-3.6,2.26l-.13,15.49c-.02,2.21,1.12,3.6,3.04,3.64,1.53.02,3.46-.88,3.47-3.35Z"/>
  <path class="cls-3" d="M104.55,105.8c-1.06-2.02-.48-4.67-.13-6.87l13.75-.02.02,20.49c-2.32.35-4.32.35-6.43-.04-.56-1.4-.25-2.46-1.5-3.87-2.46,4.55-7.13,5.29-11.81,4.25-4.35-.96-7.41-5.04-7.67-10.21-.35-7.03-1.62-22.34,3.62-26.17,5.6-4.09,14.01-4.3,19.67-.34,3.75,2.61,4.26,7.48,3.98,11.7-3.69.15-6.97.42-10.5-.26.42-2.88-.56-4.82-2.74-4.96-2.27-.15-3.68,1.24-3.68,3.89v13.87c0,2.58,1.54,3.91,3.67,3.72,2.04-.19,3.5-2.11,2.56-4.36-.29-.68-2.45-.1-2.82-.8Z"/>
  <path class="cls-3" d="M155.98,107.22c-.03-1.27-.04-2.35.32-3.68l10.02.15c.63,4.48.23,10.57-4.01,13.68-5.04,3.7-12.6,3.62-18.09.91-7.16-3.52-5.49-18.11-5.24-26.44.22-7.08,5.51-11.43,12.51-11.54,4.61-.07,9.56.51,12.49,4.4,2.54,3.37,2.83,7.93,2.52,12.03-3.61.53-6.7.26-10.28.2-.42-1.71-.12-3.27-.36-5.04-.25-1.94-1.93-2.33-3.26-2.39-1.87-.09-3.19,1.27-3.19,3.37v14.89c0,2.02,1.64,3.18,3.21,3.2,1.99.02,3.42-1.39,3.36-3.75Z"/>
  <g>
    <path class="cls-3" d="M82.72,75.44c-5.76,4.27-14.53,4.12-20.12.19-5.38-3.77-3.76-17.57-3.83-24.62-.09-8.28,6.11-12.51,13.84-12.5s13.54,3.75,13.73,11.76c.16,6.53,1.55,21.34-3.61,25.17ZM75.83,65.2l-.19-14.95c-.03-2.2-2.55-2.62-4.08-2.26s-2.3,1.84-2.3,3.71v13.9c0,2.57,1.44,3.84,3.55,3.69,1.9-.13,3.04-1.44,3.01-4.08Z"/>
    <path class="cls-3" d="M43.87,67.38c.62-1.99.03-3.67.47-5.42,3.51-.15,6.66-.23,10.25,0,.4,4.29.11,8.94-2.62,12.32-3.37,4.18-8.88,4.53-13.91,4.07-13.57-1.23-11.17-15.11-10.87-28.2.16-6.92,5.46-11.36,12.27-11.49,4.41-.08,9.27.32,12.26,3.79,3.02,3.49,3.27,8.39,2.88,12.87l-10.27-.12c-.36-1.61-.02-3.18-.3-4.9-.32-1.96-1.96-2.55-3.4-2.45-1.89.13-3.02,1.67-3.02,3.83l.02,13.94c0,1.86.75,3.28,2.34,3.58,1.2.23,3.28.17,3.9-1.82Z"/>
    <path class="cls-3" d="M21.24,61.99l-10.31.43c-.39,2.18-.34,4.15-.02,6.35l11.63.19c.82,2.89.62,6.01.17,8.98l-22.69-.11-.02-38.53h22.8c.33,3.17.38,5.88-.04,8.63l-11.75.2c-.5,1.9-.48,3.75-.02,5.62l10.19.2c.37,2.47.27,4.95.06,8.04Z"/>
  </g>
  <path class="cls-3" d="M56.11,110.64c.64,3.02.42,5.75.17,8.88h-22.07s0-38.41,0-38.41c3.78-.4,7.07-.31,10.39.09l.17,29.18,11.34.26Z"/>
  <path class="cls-3" d="M134.02,118.91c-3.24,1.43-6.66.48-10.5.54l-.04-38.38c3.74-.3,6.73-.32,10.41.02l.12,37.82Z"/>
</svg>